Sans_opsz10_wght700.ufo
<glyph name="dollar" format="2">
  <advance width="550"/>
  <unicode hex="0024"/>
  <outline>
    <contour>
      <point x="311" y="603" type="line"/>
      <point x="372" y="596"/>
      <point x="407" y="569"/>
      <point x="432" y="549" type="curve" smooth="yes"/>
      <point x="438" y="544"/>
      <point x="440" y="544"/>
      <point x="443" y="544" type="curve" smooth="yes"/>
      <point x="454" y="544"/>
      <point x="456" y="553"/>
      <point x="458" y="566" type="curve" smooth="yes"/>
      <point x="468" y="623" type="line"/>
      <point x="469" y="626"/>
      <point x="470" y="633"/>
      <point x="470" y="636" type="curve" smooth="yes"/>
      <point x="470" y="652"/>
      <point x="407" y="680"/>
      <point x="405" y="680" type="curve"/>
      <point x="368" y="697"/>
      <point x="326" y="703"/>
      <point x="311" y="704" type="curve"/>
      <point x="311" y="713"/>
      <point x="311" y="750"/>
      <point x="275" y="750" type="curve" smooth="yes"/>
      <point x="239" y="750"/>
      <point x="239" y="713"/>
      <point x="239" y="703" type="curve"/>
      <point x="174" y="697"/>
      <point x="134" y="676"/>
      <point x="105" y="643" type="curve" smooth="yes"/>
      <point x="72" y="605"/>
      <point x="61" y="549"/>
      <point x="61" y="501" type="curve" smooth="yes"/>
      <point x="61" y="395"/>
      <point x="136" y="312"/>
      <point x="239" y="294" type="curve"/>
      <point x="239" y="91" type="line"/>
      <point x="179" y="99"/>
      <point x="128" y="126"/>
      <point x="88" y="162" type="curve"/>
      <point x="85" y="165"/>
      <point x="81" y="167"/>
      <point x="76" y="167" type="curve" smooth="yes"/>
      <point x="66" y="167"/>
      <point x="64" y="158"/>
      <point x="63" y="152" type="curve" smooth="yes"/>
      <point x="61" y="138"/>
      <point x="49" y="81"/>
      <point x="49" y="71" type="curve" smooth="yes"/>
      <point x="49" y="64"/>
      <point x="50" y="63"/>
      <point x="74" y="47" type="curve" smooth="yes"/>
      <point x="106" y="26"/>
      <point x="162" y="-2"/>
      <point x="239" y="-9" type="curve"/>
      <point x="239" y="-19"/>
      <point x="239" y="-56"/>
      <point x="275" y="-56" type="curve" smooth="yes"/>
      <point x="311" y="-56"/>
      <point x="311" y="-20"/>
      <point x="311" y="-9" type="curve"/>
      <point x="435" y="6"/>
      <point x="488" y="84"/>
      <point x="488" y="207" type="curve" smooth="yes"/>
      <point x="488" y="322"/>
      <point x="412" y="408"/>
      <point x="311" y="428" type="curve"/>
    </contour>
    <contour>
      <point x="239" y="445" type="line"/>
      <point x="202" y="458"/>
      <point x="177" y="485"/>
      <point x="177" y="524" type="curve" smooth="yes"/>
      <point x="177" y="563"/>
      <point x="195" y="593"/>
      <point x="239" y="602" type="curve"/>
    </contour>
    <contour>
      <point x="311" y="276" type="line"/>
      <point x="348" y="261"/>
      <point x="372" y="227"/>
      <point x="372" y="184" type="curve" smooth="yes"/>
      <point x="372" y="120"/>
      <point x="340" y="100"/>
      <point x="311" y="93" type="curve"/>
    </contour>
  </outline>
</glyph>
<glyph name="comma" format="2">
  <advance width="305"/>
  <unicode hex="002C"/>
  <outline>
    <contour>
      <point x="218" y="104" type="line" smooth="yes"/>
      <point x="218" y="130"/>
      <point x="217" y="131"/>
      <point x="191" y="131" type="curve" smooth="yes"/>
      <point x="114" y="131" type="line" smooth="yes"/>
      <point x="88" y="131"/>
      <point x="87" y="130"/>
      <point x="87" y="104" type="curve" smooth="yes"/>
      <point x="87" y="27" type="line" smooth="yes"/>
      <point x="87" y="1"/>
      <point x="88" y="0"/>
      <point x="121" y="0" type="curve"/>
      <point x="115" y="-16"/>
      <point x="110" y="-32"/>
      <point x="104" y="-48" type="curve" smooth="yes"/>
      <point x="98" y="-63"/>
      <point x="88" y="-91"/>
      <point x="88" y="-93" type="curve" smooth="yes"/>
      <point x="88" y="-106"/>
      <point x="98" y="-106"/>
      <point x="114" y="-106" type="curve" smooth="yes"/>
      <point x="126" y="-106" type="line" smooth="yes"/>
      <point x="146" y="-106"/>
      <point x="147" y="-105"/>
      <point x="157" y="-89" type="curve" smooth="yes"/>
      <point x="175" y="-62"/>
      <point x="192" y="-34"/>
      <point x="209" y="-6" type="curve" smooth="yes"/>
      <point x="218" y="8"/>
      <point x="218" y="10"/>
      <point x="218" y="27" type="curve" smooth="yes"/>
    </contour>
  </outline>
</glyph>
<glyph name="three" format="2">
  <advance width="550"/>
  <unicode hex="0033"/>
  <outline>
    <contour>
      <point x="96" y="555" type="line" smooth="yes"/>
      <point x="104" y="543"/>
      <point x="109" y="543"/>
      <point x="111" y="543" type="curve" smooth="yes"/>
      <point x="118" y="543"/>
      <point x="120" y="547"/>
      <point x="125" y="554" type="curve" smooth="yes"/>
      <point x="176" y="627"/>
      <point x="247" y="627"/>
      <point x="260" y="627" type="curve" smooth="yes"/>
      <point x="324" y="627"/>
      <point x="333" y="594"/>
      <point x="333" y="545" type="curve" smooth="yes"/>
      <point x="333" y="531"/>
      <point x="333" y="483"/>
      <point x="302" y="445" type="curve" smooth="yes"/>
      <point x="278" y="417"/>
      <point x="253" y="415"/>
      <point x="223" y="413" type="curve" smooth="yes"/>
      <point x="212" y="412"/>
      <point x="193" y="411"/>
      <point x="190" y="409" type="curve"/>
      <point x="183" y="406"/>
      <point x="183" y="400"/>
      <point x="183" y="384" type="curve" smooth="yes"/>
      <point x="183" y="366" type="line" smooth="yes"/>
      <point x="183" y="340"/>
      <point x="184" y="339"/>
      <point x="210" y="339" type="curve" smooth="yes"/>
      <point x="254" y="339" type="line" smooth="yes"/>
      <point x="345" y="339"/>
      <point x="356" y="282"/>
      <point x="356" y="205" type="curve" smooth="yes"/>
      <point x="356" y="138"/>
      <point x="349" y="72"/>
      <point x="258" y="72" type="curve" smooth="yes"/>
      <point x="226" y="72"/>
      <point x="152" y="79"/>
      <point x="85" y="142" type="curve" smooth="yes"/>
      <point x="76" y="151"/>
      <point x="75" y="152"/>
      <point x="71" y="152" type="curve" smooth="yes"/>
      <point x="61" y="152"/>
      <point x="59" y="143"/>
      <point x="58" y="141" type="curve"/>
      <point x="58" y="140"/>
      <point x="46" y="77"/>
      <point x="46" y="72" type="curve" smooth="yes"/>
      <point x="46" y="59"/>
      <point x="132" y="-22"/>
      <point x="263" y="-22" type="curve" smooth="yes"/>
      <point x="435" y="-22"/>
      <point x="503" y="70"/>
      <point x="503" y="203" type="curve" smooth="yes"/>
      <point x="503" y="293"/>
      <point x="455" y="354"/>
      <point x="365" y="377" type="curve"/>
      <point x="446" y="421"/>
      <point x="473" y="486"/>
      <point x="473" y="543" type="curve" smooth="yes"/>
      <point x="473" y="703"/>
      <point x="330" y="716"/>
      <point x="265" y="716" type="curve" smooth="yes"/>
      <point x="128" y="716"/>
      <point x="61" y="618"/>
      <point x="61" y="610" type="curve" smooth="yes"/>
      <point x="61" y="604"/>
      <point x="67" y="596"/>
      <point x="68" y="595" type="curve"/>
    </contour>
  </outline>
</glyph>
<glyph name="seven" format="2">
  <advance width="550"/>
  <unicode hex="0037"/>
  <outline>
    <contour>
      <point x="367" y="587" type="line"/>
      <point x="143" y="340"/>
      <point x="143" y="88"/>
      <point x="143" y="37" type="curve" smooth="yes"/>
      <point x="143" y="5"/>
      <point x="150" y="-11"/>
      <point x="191" y="-11" type="curve" smooth="yes"/>
      <point x="237" y="-11" type="line" smooth="yes"/>
      <point x="253" y="-11"/>
      <point x="285" y="-11"/>
      <point x="285" y="28" type="curve" smooth="yes"/>
      <point x="288" y="276"/>
      <point x="375" y="457"/>
      <point x="495" y="608" type="curve" smooth="yes"/>
      <point x="503" y="618"/>
      <point x="503" y="626"/>
      <point x="503" y="644" type="curve" smooth="yes"/>
      <point x="503" y="666"/>
      <point x="503" y="693"/>
      <point x="461" y="694" type="curve" smooth="yes"/>
      <point x="427" y="695"/>
      <point x="226" y="695"/>
      <point x="177" y="695" type="curve" smooth="yes"/>
      <point x="114" y="695" type="line" smooth="yes"/>
      <point x="66" y="695"/>
      <point x="46" y="695"/>
      <point x="46" y="647" type="curve" smooth="yes"/>
      <point x="46" y="634" type="line" smooth="yes"/>
      <point x="46" y="618"/>
      <point x="46" y="599"/>
      <point x="67" y="590" type="curve"/>
      <point x="74" y="586"/>
      <point x="107" y="586"/>
      <point x="128" y="586" type="curve" smooth="yes"/>
      <point x="151" y="586"/>
      <point x="175" y="587"/>
      <point x="198" y="587" type="curve" smooth="yes"/>
    </contour>
  </outline>
</glyph>
<glyph name="colon" format="2">
  <advance width="305"/>
  <unicode hex="003A"/>
  <outline>
    <contour>
      <point x="218" y="431" type="line" smooth="yes"/>
      <point x="218" y="457"/>
      <point x="217" y="458"/>
      <point x="191" y="458" type="curve" smooth="yes"/>
      <point x="114" y="458" type="line" smooth="yes"/>
      <point x="88" y="458"/>
      <point x="87" y="457"/>
      <point x="87" y="431" type="curve" smooth="yes"/>
      <point x="87" y="354" type="line" smooth="yes"/>
      <point x="87" y="328"/>
      <point x="88" y="327"/>
      <point x="114" y="327" type="curve" smooth="yes"/>
      <point x="191" y="327" type="line" smooth="yes"/>
      <point x="217" y="327"/>
      <point x="218" y="328"/>
      <point x="218" y="354" type="curve" smooth="yes"/>
    </contour>
    <contour>
      <point x="87" y="27" type="line" smooth="yes"/>
      <point x="87" y="1"/>
      <point x="88" y="0"/>
      <point x="114" y="0" type="curve" smooth="yes"/>
      <point x="191" y="0" type="line" smooth="yes"/>
      <point x="217" y="0"/>
      <point x="218" y="1"/>
      <point x="218" y="27" type="curve" smooth="yes"/>
      <point x="218" y="104" type="line" smooth="yes"/>
      <point x="218" y="130"/>
      <point x="217" y="131"/>
      <point x="191" y="131" type="curve" smooth="yes"/>
      <point x="114" y="131" type="line" smooth="yes"/>
      <point x="88" y="131"/>
      <point x="87" y="130"/>
      <point x="87" y="104" type="curve" smooth="yes"/>
    </contour>
  </outline>
</glyph>
<glyph name="equal" format="2">
  <advance width="855"/>
  <unicode hex="003D"/>
  <outline>
    <contour>
      <point x="740" y="323" type="line" smooth="yes"/>
      <point x="752" y="323"/>
      <point x="794" y="323"/>
      <point x="794" y="365" type="curve" smooth="yes"/>
      <point x="794" y="407"/>
      <point x="751" y="407"/>
      <point x="741" y="407" type="curve" smooth="yes"/>
      <point x="114" y="407" type="line" smooth="yes"/>
      <point x="104" y="407"/>
      <point x="61" y="407"/>
      <point x="61" y="365" type="curve" smooth="yes"/>
      <point x="61" y="323"/>
      <point x="104" y="323"/>
      <point x="115" y="323" type="curve" smooth="yes"/>
    </contour>
    <contour>
      <point x="741" y="93" type="line" smooth="yes"/>
      <point x="751" y="93"/>
      <point x="794" y="93"/>
      <point x="794" y="135" type="curve" smooth="yes"/>
      <point x="794" y="177"/>
      <point x="751" y="177"/>
      <point x="740" y="177" type="curve" smooth="yes"/>
      <point x="115" y="177" type="line" smooth="yes"/>
      <point x="103" y="177"/>
      <point x="61" y="177"/>
      <point x="61" y="135" type="curve" smooth="yes"/>
      <point x="61" y="93"/>
      <point x="104" y="93"/>
      <point x="114" y="93" type="curve" smooth="yes"/>
    </contour>
  </outline>
</glyph>
<glyph name="at" format="2">
  <advance width="733"/>
  <unicode hex="0040"/>
  <outline>
    <contour>
      <point x="606" y="101" type="line" smooth="yes"/>
      <point x="590" y="101"/>
      <point x="588" y="101"/>
      <point x="581" y="97" type="curve"/>
      <point x="547" y="81"/>
      <point x="497" y="61"/>
      <point x="426" y="61" type="curve" smooth="yes"/>
      <point x="337" y="61"/>
      <point x="272" y="92"/>
      <point x="237" y="138" type="curve" smooth="yes"/>
      <point x="206" y="179"/>
      <point x="181" y="234"/>
      <point x="181" y="347" type="curve" smooth="yes"/>
      <point x="181" y="427"/>
      <point x="193" y="495"/>
      <point x="232" y="550" type="curve" smooth="yes"/>
      <point x="290" y="630"/>
      <point x="395" y="633"/>
      <point x="422" y="633" type="curve" smooth="yes"/>
      <point x="469" y="633"/>
      <point x="507" y="613"/>
      <point x="524" y="569" type="curve"/>
      <point x="493" y="576"/>
      <point x="470" y="576"/>
      <point x="458" y="576" type="curve" smooth="yes"/>
      <point x="305" y="576"/>
      <point x="246" y="483"/>
      <point x="246" y="347" type="curve" smooth="yes"/>
      <point x="246" y="203"/>
      <point x="311" y="118"/>
      <point x="458" y="118" type="curve" smooth="yes"/>
      <point x="671" y="118"/>
      <point x="671" y="293"/>
      <point x="671" y="367" type="curve" smooth="yes"/>
      <point x="671" y="564"/>
      <point x="637" y="705"/>
      <point x="423" y="705" type="curve" smooth="yes"/>
      <point x="188" y="705"/>
      <point x="61" y="587"/>
      <point x="61" y="347" type="curve" smooth="yes"/>
      <point x="61" y="103"/>
      <point x="192" y="-11"/>
      <point x="423" y="-11" type="curve" smooth="yes"/>
      <point x="446" y="-11"/>
      <point x="501" y="-11"/>
      <point x="573" y="19" type="curve" smooth="yes"/>
      <point x="607" y="34"/>
      <point x="671" y="74"/>
      <point x="671" y="88" type="curve" smooth="yes"/>
      <point x="671" y="101"/>
      <point x="660" y="101"/>
      <point x="644" y="101" type="curve" smooth="yes"/>
    </contour>
    <contour>
      <point x="459" y="190" type="curve" smooth="yes"/>
      <point x="366" y="190"/>
      <point x="366" y="308"/>
      <point x="366" y="347" type="curve" smooth="yes"/>
      <point x="366" y="385"/>
      <point x="366" y="504"/>
      <point x="458" y="504" type="curve" smooth="yes"/>
      <point x="551" y="504"/>
      <point x="551" y="386"/>
      <point x="551" y="347" type="curve" smooth="yes"/>
      <point x="551" y="309"/>
      <point x="551" y="190"/>
    </contour>
  </outline>
</glyph>
<glyph name="B" format="2">
  <advance width="733"/>
  <unicode hex="0042"/>
  <outline>
    <contour>
      <point x="139" y="694" type="line" smooth="yes"/>
      <point x="103" y="694"/>
      <point x="91" y="683"/>
      <point x="91" y="646" type="curve" smooth="yes"/>
      <point x="91" y="48" type="line" smooth="yes"/>
      <point x="91" y="12"/>
      <point x="102" y="0"/>
      <point x="139" y="0" type="curve" smooth="yes"/>
      <point x="413" y="0" type="line" smooth="yes"/>
      <point x="487" y="0"/>
      <point x="671" y="13"/>
      <point x="671" y="194" type="curve" smooth="yes"/>
      <point x="671" y="335"/>
      <point x="532" y="357"/>
      <point x="495" y="363" type="curve"/>
      <point x="587" y="384"/>
      <point x="640" y="436"/>
      <point x="640" y="514" type="curve" smooth="yes"/>
      <point x="640" y="694"/>
      <point x="427" y="694"/>
      <point x="385" y="694" type="curve" smooth="yes"/>
    </contour>
    <contour>
      <point x="232" y="397" type="line"/>
      <point x="232" y="608" type="line"/>
      <point x="349" y="608" type="line" smooth="yes"/>
      <point x="388" y="608"/>
      <point x="504" y="605"/>
      <point x="504" y="511" type="curve" smooth="yes"/>
      <point x="504" y="397"/>
      <point x="373" y="397"/>
      <point x="348" y="397" type="curve" smooth="yes"/>
    </contour>
    <contour>
      <point x="232" y="86" type="line"/>
      <point x="232" y="325" type="line"/>
      <point x="358" y="325" type="line" smooth="yes"/>
      <point x="393" y="325"/>
      <point x="532" y="325"/>
      <point x="532" y="196" type="curve" smooth="yes"/>
      <point x="532" y="93"/>
      <point x="425" y="86"/>
      <point x="377" y="86" type="curve" smooth="yes"/>
    </contour>
  </outline>
</glyph>
<glyph name="C" format="2">
  <advance width="703"/>
  <unicode hex="0043"/>
  <outline>
    <contour>
      <point x="640" y="143" type="line"/>
      <point x="640" y="151"/>
      <point x="633" y="155"/>
      <point x="629" y="155" type="curve" smooth="yes"/>
      <point x="605" y="155"/>
      <point x="576" y="90"/>
      <point x="435" y="90" type="curve" smooth="yes"/>
      <point x="259" y="90"/>
      <point x="209" y="198"/>
      <point x="209" y="348" type="curve" smooth="yes"/>
      <point x="209" y="497"/>
      <point x="263" y="605"/>
      <point x="427" y="605" type="curve" smooth="yes"/>
      <point x="516" y="605"/>
      <point x="563" y="570"/>
      <point x="590" y="548" type="curve" smooth="yes"/>
      <point x="596" y="543"/>
      <point x="599" y="539"/>
      <point x="606" y="539" type="curve" smooth="yes"/>
      <point x="610" y="539"/>
      <point x="615" y="544"/>
      <point x="616" y="548" type="curve"/>
      <point x="636" y="659" type="line"/>
      <point x="637" y="663"/>
      <point x="636" y="667"/>
      <point x="628" y="670" type="curve" smooth="yes"/>
      <point x="569" y="692"/>
      <point x="508" y="706"/>
      <point x="430" y="706" type="curve" smooth="yes"/>
      <point x="186" y="706"/>
      <point x="61" y="587"/>
      <point x="61" y="349" type="curve" smooth="yes"/>
      <point x="61" y="104"/>
      <point x="188" y="-10"/>
      <point x="431" y="-10" type="curve" smooth="yes"/>
      <point x="516" y="-10"/>
      <point x="569" y="2"/>
      <point x="642" y="47" type="curve" smooth="yes"/>
      <point x="650" y="52"/>
      <point x="648" y="59"/>
      <point x="648" y="59" type="curve"/>
    </contour>
  </outline>
</glyph>
<glyph name="F" format="2">
  <advance width="611"/>
  <unicode hex="0046"/>
  <outline>
    <contour>
      <point x="238" y="299" type="line"/>
      <point x="470" y="299" type="line" smooth="yes"/>
      <point x="501" y="299"/>
      <point x="518" y="306"/>
      <point x="518" y="346" type="curve" smooth="yes"/>
      <point x="518" y="383"/>
      <point x="505" y="393"/>
      <point x="470" y="393" type="curve" smooth="yes"/>
      <point x="238" y="393" type="line"/>
      <point x="238" y="590" type="line"/>
      <point x="281" y="590" type="line" smooth="yes"/>
      <point x="356" y="590"/>
      <point x="432" y="587"/>
      <point x="507" y="587" type="curve" smooth="yes"/>
      <point x="541" y="587"/>
      <point x="564" y="587"/>
      <point x="564" y="635" type="curve" smooth="yes"/>
      <point x="564" y="643" type="line" smooth="yes"/>
      <point x="564" y="675"/>
      <point x="557" y="691"/>
      <point x="516" y="691" type="curve" smooth="yes"/>
      <point x="139" y="691" type="line" smooth="yes"/>
      <point x="103" y="691"/>
      <point x="91" y="680"/>
      <point x="91" y="643" type="curve" smooth="yes"/>
      <point x="91" y="48" type="line" smooth="yes"/>
      <point x="91" y="12"/>
      <point x="102" y="0"/>
      <point x="139" y="0" type="curve" smooth="yes"/>
      <point x="190" y="0" type="line" smooth="yes"/>
      <point x="228" y="0"/>
      <point x="238" y="13"/>
      <point x="238" y="48" type="curve" smooth="yes"/>
    </contour>
  </outline>
</glyph>
<glyph name="H" format="2">
  <advance width="794"/>
  <unicode hex="0048"/>
  <outline>
    <contour>
      <point x="702" y="646" type="line" smooth="yes"/>
      <point x="702" y="678"/>
      <point x="695" y="694"/>
      <point x="654" y="694" type="curve" smooth="yes"/>
      <point x="603" y="694" type="line" smooth="yes"/>
      <point x="565" y="694"/>
      <point x="555" y="681"/>
      <point x="555" y="646" type="curve" smooth="yes"/>
      <point x="555" y="408" type="line"/>
      <point x="238" y="408" type="line"/>
      <point x="238" y="646" type="line" smooth="yes"/>
      <point x="238" y="678"/>
      <point x="231" y="694"/>
      <point x="190" y="694" type="curve" smooth="yes"/>
      <point x="139" y="694" type="line" smooth="yes"/>
      <point x="103" y="694"/>
      <point x="91" y="683"/>
      <point x="91" y="646" type="curve" smooth="yes"/>
      <point x="91" y="48" type="line" smooth="yes"/>
      <point x="91" y="12"/>
      <point x="102" y="0"/>
      <point x="139" y="0" type="curve" smooth="yes"/>
      <point x="190" y="0" type="line" smooth="yes"/>
      <point x="228" y="0"/>
      <point x="238" y="13"/>
      <point x="238" y="48" type="curve" smooth="yes"/>
      <point x="238" y="314" type="line"/>
      <point x="555" y="314" type="line"/>
      <point x="555" y="48" type="line" smooth="yes"/>
      <point x="555" y="16"/>
      <point x="562" y="0"/>
      <point x="603" y="0" type="curve" smooth="yes"/>
      <point x="654" y="0" type="line" smooth="yes"/>
      <point x="692" y="0"/>
      <point x="702" y="13"/>
      <point x="702" y="48" type="curve" smooth="yes"/>
    </contour>
  </outline>
</glyph>
<glyph name="I" format="2">
  <advance width="330"/>
  <unicode hex="0049"/>
  <outline>
    <contour>
      <point x="239" y="646" type="line" smooth="yes"/>
      <point x="239" y="678"/>
      <point x="232" y="694"/>
      <point x="191" y="694" type="curve" smooth="yes"/>
      <point x="140" y="694" type="line" smooth="yes"/>
      <point x="104" y="694"/>
      <point x="92" y="683"/>
      <point x="92" y="646" type="curve" smooth="yes"/>
      <point x="92" y="48" type="line" smooth="yes"/>
      <point x="92" y="12"/>
      <point x="103" y="0"/>
      <point x="140" y="0" type="curve" smooth="yes"/>
      <point x="191" y="0" type="line" smooth="yes"/>
      <point x="229" y="0"/>
      <point x="239" y="13"/>
      <point x="239" y="48" type="curve" smooth="yes"/>
    </contour>
  </outline>
</glyph>
<glyph name="J" format="2">
  <advance width="519"/>
  <unicode hex="004A"/>
  <outline>
    <contour>
      <point x="427" y="646" type="line" smooth="yes"/>
      <point x="427" y="678"/>
      <point x="420" y="694"/>
      <point x="379" y="694" type="curve" smooth="yes"/>
      <point x="331" y="694" type="line" smooth="yes"/>
      <point x="293" y="694"/>
      <point x="283" y="681"/>
      <point x="283" y="646" type="curve" smooth="yes"/>
      <point x="283" y="155" type="line" smooth="yes"/>
      <point x="283" y="134"/>
      <point x="283" y="78"/>
      <point x="195" y="78" type="curve" smooth="yes"/>
      <point x="137" y="78"/>
      <point x="105" y="110"/>
      <point x="91" y="128" type="curve" smooth="yes"/>
      <point x="83" y="138"/>
      <point x="81" y="140"/>
      <point x="75" y="140" type="curve" smooth="yes"/>
      <point x="65" y="140"/>
      <point x="63" y="131"/>
      <point x="61" y="121" type="curve" smooth="yes"/>
      <point x="56" y="90"/>
      <point x="46" y="37"/>
      <point x="46" y="33" type="curve" smooth="yes"/>
      <point x="46" y="24"/>
      <point x="52" y="21"/>
      <point x="71" y="13" type="curve" smooth="yes"/>
      <point x="130" y="-13"/>
      <point x="190" y="-22"/>
      <point x="235" y="-22" type="curve" smooth="yes"/>
      <point x="342" y="-22"/>
      <point x="427" y="32"/>
      <point x="427" y="149" type="curve" smooth="yes"/>
    </contour>
  </outline>
</glyph>
<glyph name="M" format="2">
  <advance width="977"/>
  <unicode hex="004D"/>
  <outline>
    <contour>
      <point x="555" y="327" type="line" smooth="yes"/>
      <point x="534" y="276"/>
      <point x="497" y="184"/>
      <point x="489" y="149" type="curve"/>
      <point x="488" y="149" type="line"/>
      <point x="479" y="185"/>
      <point x="438" y="284"/>
      <point x="417" y="337" type="curve" smooth="yes"/>
      <point x="289" y="653" type="line" smooth="yes"/>
      <point x="272" y="694"/>
      <point x="240" y="694"/>
      <point x="222" y="694" type="curve" smooth="yes"/>
      <point x="139" y="694" type="line" smooth="yes"/>
      <point x="103" y="694"/>
      <point x="91" y="683"/>
      <point x="91" y="646" type="curve" smooth="yes"/>
      <point x="91" y="48" type="line" smooth="yes"/>
      <point x="91" y="12"/>
      <point x="102" y="0"/>
      <point x="139" y="0" type="curve" smooth="yes"/>
      <point x="166" y="0" type="line" smooth="yes"/>
      <point x="204" y="0"/>
      <point x="214" y="13"/>
      <point x="214" y="48" type="curve" smooth="yes"/>
      <point x="214" y="565" type="line"/>
      <point x="215" y="565" type="line"/>
      <point x="226" y="520"/>
      <point x="271" y="409"/>
      <point x="295" y="350" type="curve" smooth="yes"/>
      <point x="411" y="65" type="line" smooth="yes"/>
      <point x="429" y="22"/>
      <point x="453" y="22"/>
      <point x="487" y="22" type="curve" smooth="yes"/>
      <point x="521" y="22"/>
      <point x="545" y="22"/>
      <point x="563" y="65" type="curve" smooth="yes"/>
      <point x="691" y="379" type="line" smooth="yes"/>
      <point x="701" y="403"/>
      <point x="755" y="539"/>
      <point x="762" y="565" type="curve"/>
      <point x="763" y="565" type="line"/>
      <point x="763" y="48" type="line" smooth="yes"/>
      <point x="763" y="16"/>
      <point x="770" y="0"/>
      <point x="811" y="0" type="curve" smooth="yes"/>
      <point x="838" y="0" type="line" smooth="yes"/>
      <point x="876" y="0"/>
      <point x="886" y="13"/>
      <point x="886" y="48" type="curve" smooth="yes"/>
      <point x="886" y="646" type="line" smooth="yes"/>
      <point x="886" y="678"/>
      <point x="879" y="694"/>
      <point x="838" y="694" type="curve" smooth="yes"/>
      <point x="754" y="694" type="line" smooth="yes"/>
      <point x="729" y="694"/>
      <point x="704" y="692"/>
      <point x="687" y="651" type="curve" smooth="yes"/>
    </contour>
  </outline>
</glyph>
<glyph name="V" format="2">
  <advance width="733"/>
  <unicode hex="0056"/>
  <outline>
    <contour>
      <point x="700" y="649" type="line" smooth="yes"/>
      <point x="704" y="661"/>
      <point x="705" y="662"/>
      <point x="705" y="667" type="curve" smooth="yes"/>
      <point x="705" y="694"/>
      <point x="680" y="694"/>
      <point x="666" y="694" type="curve" smooth="yes"/>
      <point x="627" y="694" type="line" smooth="yes"/>
      <point x="606" y="694"/>
      <point x="577" y="694"/>
      <point x="561" y="650" type="curve" smooth="yes"/>
      <point x="426" y="279" type="line"/>
      <point x="374" y="125" type="line"/>
      <point x="373" y="128"/>
      <point x="362" y="163"/>
      <point x="347" y="204" type="curve" smooth="yes"/>
      <point x="185" y="651" type="line" smooth="yes"/>
      <point x="169" y="694"/>
      <point x="141" y="694"/>
      <point x="120" y="694" type="curve" smooth="yes"/>
      <point x="66" y="694" type="line" smooth="yes"/>
      <point x="52" y="694"/>
      <point x="27" y="694"/>
      <point x="27" y="667" type="curve" smooth="yes"/>
      <point x="27" y="662"/>
      <point x="28" y="661"/>
      <point x="32" y="649" type="curve" smooth="yes"/>
      <point x="256" y="42" type="line" smooth="yes"/>
      <point x="271" y="0"/>
      <point x="300" y="0"/>
      <point x="320" y="0" type="curve" smooth="yes"/>
      <point x="412" y="0" type="line" smooth="yes"/>
      <point x="433" y="0"/>
      <point x="461" y="0"/>
      <point x="477" y="44" type="curve" smooth="yes"/>
    </contour>
  </outline>
</glyph>
<glyph name="bracketright" format="2">
  <advance width="343"/>
  <unicode hex="005D"/>
  <outline>
    <contour>
      <point x="255" y="702" type="line" smooth="yes"/>
      <point x="255" y="734"/>
      <point x="248" y="750"/>
      <point x="207" y="750" type="curve" smooth="yes"/>
      <point x="72" y="750" type="line" smooth="yes"/>
      <point x="60" y="750"/>
      <point x="24" y="750"/>
      <point x="24" y="714" type="curve" smooth="yes"/>
      <point x="24" y="678"/>
      <point x="60" y="678"/>
      <point x="72" y="678" type="curve" smooth="yes"/>
      <point x="125" y="678" type="line"/>
      <point x="125" y="-178" type="line"/>
      <point x="72" y="-178" type="line" smooth="yes"/>
      <point x="60" y="-178"/>
      <point x="24" y="-178"/>
      <point x="24" y="-214" type="curve" smooth="yes"/>
      <point x="24" y="-250"/>
      <point x="60" y="-250"/>
      <point x="72" y="-250" type="curve" smooth="yes"/>
      <point x="207" y="-250" type="line" smooth="yes"/>
      <point x="245" y="-250"/>
      <point x="255" y="-237"/>
      <point x="255" y="-202" type="curve" smooth="yes"/>
    </contour>
  </outline>
</glyph>
<glyph name="b" format="2">
  <advance width="561"/>
  <unicode hex="0062"/>
  <outline>
    <contour>
      <point x="194" y="646" type="line" smooth="yes"/>
      <point x="194" y="678"/>
      <point x="187" y="694"/>
      <point x="146" y="694" type="curve" smooth="yes"/>
      <point x="109" y="694" type="line" smooth="yes"/>
      <point x="73" y="694"/>
      <point x="61" y="683"/>
      <point x="61" y="646" type="curve" smooth="yes"/>
      <point x="61" y="48" type="line" smooth="yes"/>
      <point x="61" y="12"/>
      <point x="72" y="0"/>
      <point x="109" y="0" type="curve" smooth="yes"/>
      <point x="149" y="0" type="line" smooth="yes"/>
      <point x="166" y="0"/>
      <point x="196" y="0"/>
      <point x="197" y="39" type="curve"/>
      <point x="243" y="-11"/>
      <point x="294" y="-11"/>
      <point x="310" y="-11" type="curve" smooth="yes"/>
      <point x="523" y="-11"/>
      <point x="523" y="181"/>
      <point x="523" y="231" type="curve" smooth="yes"/>
      <point x="523" y="279"/>
      <point x="523" y="469"/>
      <point x="335" y="469" type="curve" smooth="yes"/>
      <point x="253" y="469"/>
      <point x="203" y="423"/>
      <point x="194" y="413" type="curve"/>
    </contour>
    <contour>
      <point x="197" y="362" type="line"/>
      <point x="210" y="374"/>
      <point x="240" y="397"/>
      <point x="286" y="397" type="curve" smooth="yes"/>
      <point x="387" y="397"/>
      <point x="387" y="305"/>
      <point x="387" y="230" type="curve" smooth="yes"/>
      <point x="387" y="156"/>
      <point x="387" y="61"/>
      <point x="275" y="61" type="curve" smooth="yes"/>
      <point x="233" y="61"/>
      <point x="208" y="86"/>
      <point x="197" y="100" type="curve"/>
    </contour>
  </outline>
</glyph>
<glyph name="f" format="2">
  <advance width="336"/>
  <unicode hex="0066"/>
  <outline>
    <contour>
      <point x="219" y="386" type="line"/>
      <point x="267" y="386" type="line" smooth="yes"/>
      <point x="279" y="386"/>
      <point x="315" y="386"/>
      <point x="315" y="422" type="curve" smooth="yes"/>
      <point x="315" y="458"/>
      <point x="279" y="458"/>
      <point x="267" y="458" type="curve" smooth="yes"/>
      <point x="216" y="458" type="line"/>
      <point x="216" y="567" type="line" smooth="yes"/>
      <point x="216" y="593"/>
      <point x="216" y="633"/>
      <point x="281" y="633" type="curve" smooth="yes"/>
      <point x="313" y="633"/>
      <point x="333" y="624"/>
      <point x="353" y="605" type="curve"/>
      <point x="360" y="597"/>
      <point x="363" y="595"/>
      <point x="368" y="595" type="curve" smooth="yes"/>
      <point x="381" y="595"/>
      <point x="381" y="605"/>
      <point x="381" y="621" type="curve" smooth="yes"/>
      <point x="381" y="667" type="line" smooth="yes"/>
      <point x="381" y="691"/>
      <point x="380" y="692"/>
      <point x="346" y="699" type="curve" smooth="yes"/>
      <point x="317" y="705"/>
      <point x="296" y="705"/>
      <point x="281" y="705" type="curve" smooth="yes"/>
      <point x="206" y="705"/>
      <point x="86" y="688"/>
      <point x="86" y="538" type="curve" smooth="yes"/>
      <point x="86" y="458" type="line"/>
      <point x="65" y="458"/>
      <point x="30" y="458"/>
      <point x="30" y="422" type="curve" smooth="yes"/>
      <point x="30" y="386"/>
      <point x="64" y="386"/>
      <point x="86" y="386" type="curve"/>
      <point x="86" y="48" type="line" smooth="yes"/>
      <point x="86" y="12"/>
      <point x="97" y="0"/>
      <point x="134" y="0" type="curve" smooth="yes"/>
      <point x="171" y="0" type="line" smooth="yes"/>
      <point x="209" y="0"/>
      <point x="219" y="13"/>
      <point x="219" y="48" type="curve" smooth="yes"/>
    </contour>
  </outline>
</glyph>
<glyph name="g" format="2">
  <advance width="550"/>
  <unicode hex="0067"/>
  <outline>
    <contour>
      <point x="200" y="92" type="line" smooth="yes"/>
      <point x="164" y="92"/>
      <point x="150" y="92"/>
      <point x="136" y="104" type="curve"/>
      <point x="132" y="108"/>
      <point x="115" y="123"/>
      <point x="115" y="149" type="curve" smooth="yes"/>
      <point x="115" y="156"/>
      <point x="116" y="158"/>
      <point x="117" y="164" type="curve"/>
      <point x="164" y="138"/>
      <point x="223" y="138"/>
      <point x="244" y="138" type="curve" smooth="yes"/>
      <point x="286" y="138"/>
      <point x="445" y="138"/>
      <point x="445" y="303" type="curve" smooth="yes"/>
      <point x="445" y="361"/>
      <point x="423" y="396"/>
      <point x="414" y="407" type="curve"/>
      <point x="431" y="407"/>
      <point x="466" y="407"/>
      <point x="507" y="396" type="curve"/>
      <point x="511" y="394"/>
      <point x="518" y="392"/>
      <point x="521" y="392" type="curve" smooth="yes"/>
      <point x="529" y="392"/>
      <point x="534" y="398"/>
      <point x="534" y="405" type="curve" smooth="yes"/>
      <point x="534" y="409"/>
      <point x="529" y="433"/>
      <point x="527" y="443" type="curve" smooth="yes"/>
      <point x="523" y="467"/>
      <point x="523" y="469"/>
      <point x="505" y="469" type="curve" smooth="yes"/>
      <point x="474" y="469"/>
      <point x="424" y="457"/>
      <point x="386" y="434" type="curve"/>
      <point x="339" y="465"/>
      <point x="287" y="469"/>
      <point x="244" y="469" type="curve" smooth="yes"/>
      <point x="202" y="469"/>
      <point x="43" y="469"/>
      <point x="43" y="304" type="curve" smooth="yes"/>
      <point x="43" y="264"/>
      <point x="54" y="214"/>
      <point x="92" y="181" type="curve"/>
      <point x="65" y="144"/>
      <point x="65" y="105"/>
      <point x="65" y="100" type="curve" smooth="yes"/>
      <point x="65" y="81"/>
      <point x="71" y="48"/>
      <point x="92" y="21" type="curve"/>
      <point x="77" y="15"/>
      <point x="25" y="-3"/>
      <point x="25" y="-67" type="curve" smooth="yes"/>
      <point x="25" y="-98"/>
      <point x="40" y="-150"/>
      <point x="103" y="-179" type="curve" smooth="yes"/>
      <point x="160" y="-205"/>
      <point x="227" y="-206"/>
      <point x="274" y="-206" type="curve" smooth="yes"/>
      <point x="333" y="-206"/>
      <point x="524" y="-206"/>
      <point x="524" y="-64" type="curve" smooth="yes"/>
      <point x="524" y="92"/>
      <point x="383" y="92"/>
      <point x="248" y="92" type="curve" smooth="yes"/>
    </contour>
    <contour>
      <point x="244" y="210" type="curve" smooth="yes"/>
      <point x="174" y="210"/>
      <point x="171" y="248"/>
      <point x="171" y="303" type="curve" smooth="yes"/>
      <point x="171" y="358"/>
      <point x="174" y="397"/>
      <point x="244" y="397" type="curve" smooth="yes"/>
      <point x="314" y="397"/>
      <point x="317" y="359"/>
      <point x="317" y="304" type="curve" smooth="yes"/>
      <point x="317" y="249"/>
      <point x="314" y="210"/>
    </contour>
    <contour>
      <point x="298" y="-17" type="line" smooth="yes"/>
      <point x="379" y="-17"/>
      <point x="421" y="-31"/>
      <point x="421" y="-67" type="curve" smooth="yes"/>
      <point x="421" y="-134"/>
      <point x="307" y="-134"/>
      <point x="275" y="-134" type="curve" smooth="yes"/>
      <point x="235" y="-134"/>
      <point x="128" y="-134"/>
      <point x="128" y="-64" type="curve" smooth="yes"/>
      <point x="128" y="-17"/>
      <point x="159" y="-17"/>
      <point x="182" y="-17" type="curve" smooth="yes"/>
    </contour>
  </outline>
</glyph>
<glyph name="h" format="2">
  <advance width="561"/>
  <unicode hex="0068"/>
  <outline>
    <contour>
      <point x="500" y="325" type="line" smooth="yes"/>
      <point x="500" y="428"/>
      <point x="456" y="469"/>
      <point x="354" y="469" type="curve" smooth="yes"/>
      <point x="254" y="469"/>
      <point x="208" y="400"/>
      <point x="194" y="372" type="curve"/>
      <point x="193" y="372" type="line"/>
      <point x="193" y="646" type="line" smooth="yes"/>
      <point x="193" y="678"/>
      <point x="186" y="694"/>
      <point x="145" y="694" type="curve" smooth="yes"/>
      <point x="108" y="694" type="line" smooth="yes"/>
      <point x="72" y="694"/>
      <point x="60" y="683"/>
      <point x="60" y="646" type="curve" smooth="yes"/>
      <point x="60" y="48" type="line" smooth="yes"/>
      <point x="60" y="12"/>
      <point x="71" y="0"/>
      <point x="108" y="0" type="curve" smooth="yes"/>
      <point x="148" y="0" type="line" smooth="yes"/>
      <point x="186" y="0"/>
      <point x="196" y="13"/>
      <point x="196" y="48" type="curve" smooth="yes"/>
      <point x="196" y="269" type="line" smooth="yes"/>
      <point x="196" y="356"/>
      <point x="254" y="397"/>
      <point x="306" y="397" type="curve" smooth="yes"/>
      <point x="354" y="397"/>
      <point x="364" y="374"/>
      <point x="364" y="323" type="curve" smooth="yes"/>
      <point x="364" y="48" type="line" smooth="yes"/>
      <point x="364" y="16"/>
      <point x="371" y="0"/>
      <point x="412" y="0" type="curve" smooth="yes"/>
      <point x="452" y="0" type="line" smooth="yes"/>
      <point x="490" y="0"/>
      <point x="500" y="13"/>
      <point x="500" y="48" type="curve" smooth="yes"/>
    </contour>
  </outline>
</glyph>
<glyph name="k" format="2">
  <advance width="530"/>
  <unicode hex="006B"/>
  <outline>
    <contour>
      <point x="313" y="272" type="line"/>
      <point x="467" y="415" type="line" smooth="yes"/>
      <point x="479" y="426"/>
      <point x="482" y="429"/>
      <point x="482" y="437" type="curve" smooth="yes"/>
      <point x="482" y="458"/>
      <point x="462" y="458"/>
      <point x="448" y="458" type="curve" smooth="yes"/>
      <point x="390" y="458" type="line" smooth="yes"/>
      <point x="372" y="458"/>
      <point x="353" y="458"/>
      <point x="330" y="437" type="curve" smooth="yes"/>
      <point x="186" y="303" type="line"/>
      <point x="186" y="646" type="line" smooth="yes"/>
      <point x="186" y="678"/>
      <point x="179" y="694"/>
      <point x="138" y="694" type="curve" smooth="yes"/>
      <point x="117" y="694" type="line" smooth="yes"/>
      <point x="81" y="694"/>
      <point x="69" y="683"/>
      <point x="69" y="646" type="curve" smooth="yes"/>
      <point x="69" y="48" type="line" smooth="yes"/>
      <point x="69" y="12"/>
      <point x="80" y="0"/>
      <point x="117" y="0" type="curve" smooth="yes"/>
      <point x="135" y="0" type="line" smooth="yes"/>
      <point x="173" y="0"/>
      <point x="183" y="13"/>
      <point x="183" y="48" type="curve" smooth="yes"/>
      <point x="183" y="152" type="line"/>
      <point x="230" y="195" type="line"/>
      <point x="360" y="25" type="line" smooth="yes"/>
      <point x="377" y="3"/>
      <point x="384" y="0"/>
      <point x="413" y="0" type="curve" smooth="yes"/>
      <point x="461" y="0" type="line" smooth="yes"/>
      <point x="475" y="0"/>
      <point x="497" y="0"/>
      <point x="497" y="22" type="curve" smooth="yes"/>
      <point x="497" y="24"/>
      <point x="497" y="31"/>
      <point x="487" y="44" type="curve" smooth="yes"/>
    </contour>
  </outline>
</glyph>
<glyph name="p" format="2">
  <advance width="561"/>
  <unicode hex="0070"/>
  <outline>
    <contour>
      <point x="197" y="39" type="line"/>
      <point x="242" y="-11"/>
      <point x="297" y="-11"/>
      <point x="311" y="-11" type="curve" smooth="yes"/>
      <point x="523" y="-11"/>
      <point x="523" y="181"/>
      <point x="523" y="231" type="curve" smooth="yes"/>
      <point x="523" y="280"/>
      <point x="523" y="469"/>
      <point x="342" y="469" type="curve" smooth="yes"/>
      <point x="283" y="469"/>
      <point x="230" y="445"/>
      <point x="194" y="411" type="curve"/>
      <point x="194" y="448"/>
      <point x="180" y="458"/>
      <point x="146" y="458" type="curve" smooth="yes"/>
      <point x="109" y="458" type="line" smooth="yes"/>
      <point x="73" y="458"/>
      <point x="61" y="447"/>
      <point x="61" y="410" type="curve" smooth="yes"/>
      <point x="61" y="-146" type="line" smooth="yes"/>
      <point x="61" y="-182"/>
      <point x="72" y="-194"/>
      <point x="109" y="-194" type="curve" smooth="yes"/>
      <point x="149" y="-194" type="line" smooth="yes"/>
      <point x="187" y="-194"/>
      <point x="197" y="-181"/>
      <point x="197" y="-146" type="curve" smooth="yes"/>
    </contour>
    <contour>
      <point x="197" y="358" type="line"/>
      <point x="208" y="368"/>
      <point x="241" y="391"/>
      <point x="284" y="391" type="curve" smooth="yes"/>
      <point x="386" y="391"/>
      <point x="387" y="273"/>
      <point x="387" y="229" type="curve" smooth="yes"/>
      <point x="387" y="189"/>
      <point x="387" y="61"/>
      <point x="274" y="61" type="curve" smooth="yes"/>
      <point x="251" y="61"/>
      <point x="233" y="69"/>
      <point x="221" y="78" type="curve" smooth="yes"/>
      <point x="197" y="95"/>
      <point x="197" y="100"/>
      <point x="197" y="118" type="curve" smooth="yes"/>
    </contour>
  </outline>
</glyph>
<glyph name="q" format="2">
  <advance width="561"/>
  <unicode hex="0071"/>
  <outline>
    <contour>
      <point x="499" y="421" type="line" smooth="yes"/>
      <point x="499" y="453"/>
      <point x="492" y="469"/>
      <point x="451" y="469" type="curve" smooth="yes"/>
      <point x="414" y="469" type="line" smooth="yes"/>
      <point x="376" y="469"/>
      <point x="366" y="456"/>
      <point x="366" y="421" type="curve" smooth="yes"/>
      <point x="366" y="402" type="line"/>
      <point x="322" y="469"/>
      <point x="263" y="469"/>
      <point x="246" y="469" type="curve" smooth="yes"/>
      <point x="53" y="469"/>
      <point x="37" y="308"/>
      <point x="37" y="228" type="curve" smooth="yes"/>
      <point x="37" y="150"/>
      <point x="53" y="-11"/>
      <point x="239" y="-11" type="curve" smooth="yes"/>
      <point x="292" y="-11"/>
      <point x="329" y="9"/>
      <point x="363" y="48" type="curve"/>
      <point x="363" y="-146" type="line" smooth="yes"/>
      <point x="363" y="-178"/>
      <point x="370" y="-194"/>
      <point x="411" y="-194" type="curve" smooth="yes"/>
      <point x="451" y="-194" type="line" smooth="yes"/>
      <point x="489" y="-194"/>
      <point x="499" y="-181"/>
      <point x="499" y="-146" type="curve" smooth="yes"/>
    </contour>
    <contour>
      <point x="366" y="115" type="line"/>
      <point x="348" y="90"/>
      <point x="321" y="61"/>
      <point x="275" y="61" type="curve" smooth="yes"/>
      <point x="173" y="61"/>
      <point x="173" y="188"/>
      <point x="173" y="227" type="curve" smooth="yes"/>
      <point x="173" y="267"/>
      <point x="173" y="391"/>
      <point x="285" y="391" type="curve" smooth="yes"/>
      <point x="301" y="391"/>
      <point x="322" y="387"/>
      <point x="340" y="368" type="curve" smooth="yes"/>
      <point x="366" y="343"/>
      <point x="366" y="325"/>
      <point x="366" y="313" type="curve" smooth="yes"/>
    </contour>
  </outline>
</glyph>
<glyph name="w" format="2">
  <advance width="744"/>
  <unicode hex="0077"/>
  <outline>
    <contour>
      <point x="719" y="430" type="line"/>
      <point x="716" y="458"/>
      <point x="698" y="458"/>
      <point x="667" y="458" type="curve" smooth="yes"/>
      <point x="620" y="458"/>
      <point x="608" y="455"/>
      <point x="594" y="403" type="curve" smooth="yes"/>
      <point x="572" y="326"/>
      <point x="528" y="170"/>
      <point x="513" y="113" type="curve"/>
      <point x="428" y="413" type="line" smooth="yes"/>
      <point x="422" y="435"/>
      <point x="415" y="458"/>
      <point x="369" y="458" type="curve" smooth="yes"/>
      <point x="354" y="458"/>
      <point x="331" y="458"/>
      <point x="317" y="435" type="curve" smooth="yes"/>
      <point x="308" y="420"/>
      <point x="264" y="247"/>
      <point x="229" y="130" type="curve"/>
      <point x="149" y="413" type="line" smooth="yes"/>
      <point x="139" y="447"/>
      <point x="128" y="458"/>
      <point x="87" y="458" type="curve" smooth="yes"/>
      <point x="67" y="458" type="line" smooth="yes"/>
      <point x="48" y="458"/>
      <point x="27" y="458"/>
      <point x="24" y="430" type="curve"/>
      <point x="130" y="46" type="line" smooth="yes"/>
      <point x="143" y="0"/>
      <point x="169" y="0"/>
      <point x="194" y="0" type="curve" smooth="yes"/>
      <point x="222" y="0" type="line" smooth="yes"/>
      <point x="269" y="0"/>
      <point x="277" y="15"/>
      <point x="288" y="55" type="curve" smooth="yes"/>
      <point x="311" y="138"/>
      <point x="347" y="264"/>
      <point x="351" y="316" type="curve"/>
      <point x="352" y="317" type="line"/>
      <point x="358" y="260"/>
      <point x="402" y="102"/>
      <point x="415" y="55" type="curve" smooth="yes"/>
      <point x="426" y="19"/>
      <point x="431" y="0"/>
      <point x="481" y="0" type="curve" smooth="yes"/>
      <point x="549" y="0" type="line" smooth="yes"/>
      <point x="592" y="0"/>
      <point x="602" y="12"/>
      <point x="612" y="46" type="curve" smooth="yes"/>
    </contour>
  </outline>
</glyph>
<glyph name="y" format="2">
  <advance width="500"/>
  <unicode hex="0079"/>
  <outline>
    <contour>
      <point x="468" y="411" type="line" smooth="yes"/>
      <point x="473" y="424"/>
      <point x="473" y="426"/>
      <point x="473" y="431" type="curve" smooth="yes"/>
      <point x="473" y="458"/>
      <point x="446" y="458"/>
      <point x="433" y="458" type="curve" smooth="yes"/>
      <point x="411" y="458" type="line" smooth="yes"/>
      <point x="395" y="458"/>
      <point x="373" y="458"/>
      <point x="358" y="435" type="curve" smooth="yes"/>
      <point x="355" y="430"/>
      <point x="274" y="209"/>
      <point x="269" y="142" type="curve"/>
      <point x="268" y="142" type="line"/>
      <point x="263" y="191"/>
      <point x="222" y="284"/>
      <point x="179" y="380" type="curve" smooth="yes"/>
      <point x="151" y="443"/>
      <point x="144" y="458"/>
      <point x="94" y="458" type="curve" smooth="yes"/>
      <point x="68" y="458" type="line" smooth="yes"/>
      <point x="54" y="458"/>
      <point x="29" y="458"/>
      <point x="29" y="432" type="curve" smooth="yes"/>
      <point x="29" y="428"/>
      <point x="32" y="421"/>
      <point x="34" y="416" type="curve" smooth="yes"/>
      <point x="223" y="0" type="line"/>
      <point x="215" y="-21"/>
      <point x="212" y="-32"/>
      <point x="209" y="-42" type="curve"/>
      <point x="197" y="-75"/>
      <point x="180" y="-120"/>
      <point x="126" y="-120" type="curve" smooth="yes"/>
      <point x="93" y="-120"/>
      <point x="70" y="-106"/>
      <point x="59" y="-99" type="curve" smooth="yes"/>
      <point x="54" y="-96"/>
      <point x="52" y="-95"/>
      <point x="49" y="-95" type="curve" smooth="yes"/>
      <point x="44" y="-95"/>
      <point x="36" y="-98"/>
      <point x="36" y="-110" type="curve" smooth="yes"/>
      <point x="36" y="-118"/>
      <point x="42" y="-187"/>
      <point x="45" y="-191" type="curve" smooth="yes"/>
      <point x="54" y="-203"/>
      <point x="108" y="-205"/>
      <point x="124" y="-205" type="curve" smooth="yes"/>
      <point x="248" y="-205"/>
      <point x="297" y="-87"/>
      <point x="305" y="-63" type="curve" smooth="yes"/>
    </contour>
  </outline>
</glyph>
<glyph name="z" format="2">
  <advance width="476"/>
  <unicode hex="007A"/>
  <outline>
    <contour>
      <point x="426" y="382" type="line" smooth="yes"/>
      <point x="436" y="395"/>
      <point x="438" y="400"/>
      <point x="438" y="416" type="curve" smooth="yes"/>
      <point x="438" y="458"/>
      <point x="407" y="458"/>
      <point x="390" y="458" type="curve" smooth="yes"/>
      <point x="94" y="458" type="line" smooth="yes"/>
      <point x="81" y="458"/>
      <point x="46" y="458"/>
      <point x="46" y="420" type="curve" smooth="yes"/>
      <point x="46" y="383"/>
      <point x="78" y="383"/>
      <point x="105" y="383" type="curve" smooth="yes"/>
      <point x="137" y="383"/>
      <point x="218" y="385"/>
      <point x="250" y="385" type="curve" smooth="yes"/>
      <point x="287" y="385" type="line"/>
      <point x="43" y="76" type="line" smooth="yes"/>
      <point x="33" y="63"/>
      <point x="31" y="58"/>
      <point x="31" y="42" type="curve" smooth="yes"/>
      <point x="31" y="0"/>
      <point x="62" y="0"/>
      <point x="79" y="0" type="curve" smooth="yes"/>
      <point x="393" y="0" type="line" smooth="yes"/>
      <point x="406" y="0"/>
      <point x="441" y="0"/>
      <point x="441" y="37" type="curve" smooth="yes"/>
      <point x="441" y="75"/>
      <point x="410" y="75"/>
      <point x="381" y="75" type="curve" smooth="yes"/>
      <point x="331" y="75"/>
      <point x="278" y="73"/>
      <point x="228" y="73" type="curve" smooth="yes"/>
      <point x="182" y="73" type="line"/>
    </contour>
  </outline>
</glyph>
<glyph name="cedilla" format="2">
  <advance width="488"/>
  <unicode hex="00B8"/>
  <outline>
    <contour>
      <point x="305" y="-53" type="line" smooth="yes"/>
      <point x="310" y="-40"/>
      <point x="310" y="-38"/>
      <point x="310" y="-37" type="curve" smooth="yes"/>
      <point x="310" y="-24"/>
      <point x="300" y="-24"/>
      <point x="284" y="-24" type="curve" smooth="yes"/>
      <point x="266" y="-24" type="line" smooth="yes"/>
      <point x="245" y="-24"/>
      <point x="244" y="-25"/>
      <point x="231" y="-45" type="curve" smooth="yes"/>
      <point x="220" y="-62"/>
      <point x="147" y="-173"/>
      <point x="147" y="-179" type="curve" smooth="yes"/>
      <point x="147" y="-192"/>
      <point x="157" y="-192"/>
      <point x="173" y="-192" type="curve" smooth="yes"/>
      <point x="223" y="-192" type="line" smooth="yes"/>
      <point x="245" y="-192"/>
      <point x="246" y="-192"/>
      <point x="254" y="-174" type="curve" smooth="yes"/>
    </contour>
  </outline>
</glyph>
<glyph name="Gamma" format="2">
  <advance width="580"/>
  <unicode hex="0393"/>
  <outline>
    <contour>
      <point x="238" y="590" type="line"/>
      <point x="270" y="590" type="line" smooth="yes"/>
      <point x="316" y="590"/>
      <point x="433" y="587"/>
      <point x="479" y="587" type="curve" smooth="yes"/>
      <point x="511" y="587"/>
      <point x="534" y="587"/>
      <point x="534" y="635" type="curve" smooth="yes"/>
      <point x="534" y="643" type="line" smooth="yes"/>
      <point x="534" y="675"/>
      <point x="527" y="691"/>
      <point x="486" y="691" type="curve" smooth="yes"/>
      <point x="139" y="691" type="line" smooth="yes"/>
      <point x="103" y="691"/>
      <point x="91" y="680"/>
      <point x="91" y="643" type="curve" smooth="yes"/>
      <point x="91" y="48" type="line" smooth="yes"/>
      <point x="91" y="12"/>
      <point x="102" y="0"/>
      <point x="139" y="0" type="curve" smooth="yes"/>
      <point x="190" y="0" type="line" smooth="yes"/>
      <point x="228" y="0"/>
      <point x="238" y="13"/>
      <point x="238" y="48" type="curve" smooth="yes"/>
    </contour>
  </outline>
</glyph>
<glyph name="Phi" format="2">
  <advance width="794"/>
  <unicode hex="03A6"/>
  <outline>
    <contour>
      <point x="464" y="646" type="line" smooth="yes"/>
      <point x="464" y="678"/>
      <point x="457" y="694"/>
      <point x="416" y="694" type="curve" smooth="yes"/>
      <point x="371" y="694" type="line" smooth="yes"/>
      <point x="335" y="694"/>
      <point x="323" y="683"/>
      <point x="323" y="646" type="curve" smooth="yes"/>
      <point x="323" y="587" type="line"/>
      <point x="194" y="576"/>
      <point x="61" y="521"/>
      <point x="61" y="347" type="curve" smooth="yes"/>
      <point x="61" y="174"/>
      <point x="193" y="118"/>
      <point x="323" y="107" type="curve"/>
      <point x="323" y="48" type="line" smooth="yes"/>
      <point x="323" y="12"/>
      <point x="334" y="0"/>
      <point x="371" y="0" type="curve" smooth="yes"/>
      <point x="416" y="0" type="line" smooth="yes"/>
      <point x="454" y="0"/>
      <point x="464" y="13"/>
      <point x="464" y="48" type="curve" smooth="yes"/>
      <point x="464" y="106" type="line"/>
      <point x="596" y="116"/>
      <point x="732" y="172"/>
      <point x="732" y="347" type="curve" smooth="yes"/>
      <point x="732" y="521"/>
      <point x="598" y="578"/>
      <point x="464" y="588" type="curve"/>
    </contour>
    <contour>
      <point x="323" y="181" type="line"/>
      <point x="212" y="201"/>
      <point x="205" y="285"/>
      <point x="205" y="347" type="curve" smooth="yes"/>
      <point x="205" y="409"/>
      <point x="213" y="493"/>
      <point x="323" y="513" type="curve"/>
    </contour>
    <contour>
      <point x="464" y="514" type="line"/>
      <point x="583" y="496"/>
      <point x="588" y="405"/>
      <point x="588" y="347" type="curve" smooth="yes"/>
      <point x="588" y="289"/>
      <point x="582" y="198"/>
      <point x="464" y="180" type="curve"/>
    </contour>
  </outline>
</glyph>
<glyph name="Psi" format="2">
  <advance width="855"/>
  <unicode hex="03A8"/>
  <outline>
    <contour>
      <point x="495" y="646" type="line" smooth="yes"/>
      <point x="495" y="678"/>
      <point x="488" y="694"/>
      <point x="447" y="694" type="curve" smooth="yes"/>
      <point x="402" y="694" type="line" smooth="yes"/>
      <point x="366" y="694"/>
      <point x="354" y="683"/>
      <point x="354" y="646" type="curve" smooth="yes"/>
      <point x="354" y="187" type="line"/>
      <point x="254" y="222"/>
      <point x="254" y="345"/>
      <point x="254" y="438" type="curve" smooth="yes"/>
      <point x="254" y="560"/>
      <point x="234" y="619"/>
      <point x="157" y="619" type="curve" smooth="yes"/>
      <point x="109" y="619" type="line" smooth="yes"/>
      <point x="98" y="619"/>
      <point x="61" y="619"/>
      <point x="61" y="583" type="curve" smooth="yes"/>
      <point x="61" y="577"/>
      <point x="63" y="550"/>
      <point x="98" y="547" type="curve"/>
      <point x="108" y="529"/>
      <point x="113" y="502"/>
      <point x="113" y="433" type="curve" smooth="yes"/>
      <point x="113" y="344"/>
      <point x="114" y="138"/>
      <point x="354" y="108" type="curve"/>
      <point x="354" y="48" type="line" smooth="yes"/>
      <point x="354" y="12"/>
      <point x="365" y="0"/>
      <point x="402" y="0" type="curve" smooth="yes"/>
      <point x="447" y="0" type="line" smooth="yes"/>
      <point x="485" y="0"/>
      <point x="495" y="13"/>
      <point x="495" y="48" type="curve" smooth="yes"/>
      <point x="495" y="108" type="line"/>
      <point x="742" y="135"/>
      <point x="742" y="350"/>
      <point x="742" y="422" type="curve" smooth="yes"/>
      <point x="742" y="472"/>
      <point x="742" y="520"/>
      <point x="757" y="547" type="curve"/>
      <point x="792" y="550"/>
      <point x="794" y="577"/>
      <point x="794" y="583" type="curve" smooth="yes"/>
      <point x="794" y="619"/>
      <point x="758" y="619"/>
      <point x="746" y="619" type="curve" smooth="yes"/>
      <point x="698" y="619" type="line" smooth="yes"/>
      <point x="601" y="619"/>
      <point x="601" y="519"/>
      <point x="601" y="414" type="curve" smooth="yes"/>
      <point x="601" y="328"/>
      <point x="592" y="216"/>
      <point x="495" y="187" type="curve"/>
    </contour>
  </outline>
</glyph>
<glyph name="Delta" format="2">
  <advance width="916"/>
  <unicode hex="2206"/>
  <outline>
    <contour>
      <point x="571" y="655" type="line" smooth="yes"/>
      <point x="553" y="694"/>
      <point x="522" y="694"/>
      <point x="503" y="694" type="curve" smooth="yes"/>
      <point x="413" y="694" type="line" smooth="yes"/>
      <point x="394" y="694"/>
      <point x="363" y="694"/>
      <point x="345" y="655" type="curve" smooth="yes"/>
      <point x="67" y="45" type="line" smooth="yes"/>
      <point x="60" y="31"/>
      <point x="60" y="29"/>
      <point x="60" y="25" type="curve" smooth="yes"/>
      <point x="60" y="0"/>
      <point x="85" y="0"/>
      <point x="98" y="0" type="curve" smooth="yes"/>
      <point x="818" y="0" type="line" smooth="yes"/>
      <point x="831" y="0"/>
      <point x="856" y="0"/>
      <point x="856" y="25" type="curve" smooth="yes"/>
      <point x="856" y="29"/>
      <point x="856" y="31"/>
      <point x="850" y="43" type="curve" smooth="yes"/>
    </contour>
    <contour>
      <point x="447" y="572" type="line"/>
      <point x="648" y="132" type="line"/>
      <point x="246" y="132" type="line"/>
    </contour>
  </outline>
</glyph>
<glyph name="dotlessj" format="2">
  <advance width="286"/>
  <outline>
    <contour>
      <point x="224" y="410" type="line" smooth="yes"/>
      <point x="224" y="442"/>
      <point x="217" y="458"/>
      <point x="176" y="458" type="curve" smooth="yes"/>
      <point x="139" y="458" type="line" smooth="yes"/>
      <point x="101" y="458"/>
      <point x="91" y="445"/>
      <point x="91" y="410" type="curve" smooth="yes"/>
      <point x="91" y="-56" type="line" smooth="yes"/>
      <point x="91" y="-81"/>
      <point x="91" y="-121"/>
      <point x="31" y="-121" type="curve" smooth="yes"/>
      <point x="13" y="-121"/>
      <point x="-10" y="-117"/>
      <point x="-32" y="-103" type="curve"/>
      <point x="-34" y="-102"/>
      <point x="-38" y="-99"/>
      <point x="-42" y="-99" type="curve" smooth="yes"/>
      <point x="-50" y="-99"/>
      <point x="-51" y="-100"/>
      <point x="-60" y="-126" type="curve" smooth="yes"/>
      <point x="-64" y="-136"/>
      <point x="-71" y="-155"/>
      <point x="-71" y="-158" type="curve" smooth="yes"/>
      <point x="-71" y="-177"/>
      <point x="12" y="-205"/>
      <point x="75" y="-205" type="curve" smooth="yes"/>
      <point x="185" y="-205"/>
      <point x="224" y="-131"/>
      <point x="224" y="-32" type="curve" smooth="yes"/>
    </contour>
  </outline>
</glyph>
<glyph name="ffl" format="2">
  <advance width="891"/>
  <outline>
    <contour>
      <point x="219" y="386" type="line"/>
      <point x="275" y="386" type="line" smooth="yes"/>
      <point x="287" y="386"/>
      <point x="323" y="386"/>
      <point x="323" y="422" type="curve" smooth="yes"/>
      <point x="323" y="458"/>
      <point x="287" y="458"/>
      <point x="275" y="458" type="curve" smooth="yes"/>
      <point x="216" y="458" type="line"/>
      <point x="216" y="569" type="line" smooth="yes"/>
      <point x="216" y="600"/>
      <point x="219" y="633"/>
      <point x="265" y="633" type="curve" smooth="yes"/>
      <point x="299" y="633"/>
      <point x="315" y="616"/>
      <point x="326" y="602" type="curve"/>
      <point x="329" y="599"/>
      <point x="332" y="595"/>
      <point x="338" y="595" type="curve" smooth="yes"/>
      <point x="351" y="595"/>
      <point x="351" y="605"/>
      <point x="351" y="621" type="curve" smooth="yes"/>
      <point x="351" y="667" type="line" smooth="yes"/>
      <point x="351" y="691"/>
      <point x="350" y="692"/>
      <point x="321" y="699" type="curve" smooth="yes"/>
      <point x="295" y="705"/>
      <point x="276" y="705"/>
      <point x="263" y="705" type="curve" smooth="yes"/>
      <point x="157" y="705"/>
      <point x="86" y="659"/>
      <point x="86" y="539" type="curve" smooth="yes"/>
      <point x="86" y="458" type="line"/>
      <point x="65" y="458"/>
      <point x="30" y="458"/>
      <point x="30" y="422" type="curve" smooth="yes"/>
      <point x="30" y="386"/>
      <point x="64" y="386"/>
      <point x="86" y="386" type="curve"/>
      <point x="86" y="48" type="line" smooth="yes"/>
      <point x="86" y="12"/>
      <point x="97" y="0"/>
      <point x="134" y="0" type="curve" smooth="yes"/>
      <point x="171" y="0" type="line" smooth="yes"/>
      <point x="209" y="0"/>
      <point x="219" y="13"/>
      <point x="219" y="48" type="curve" smooth="yes"/>
    </contour>
    <contour>
      <point x="830" y="646" type="line" smooth="yes"/>
      <point x="830" y="678"/>
      <point x="823" y="694"/>
      <point x="782" y="694" type="curve" smooth="yes"/>
      <point x="745" y="694" type="line" smooth="yes"/>
      <point x="707" y="694"/>
      <point x="697" y="681"/>
      <point x="697" y="646" type="curve" smooth="yes"/>
      <point x="697" y="48" type="line" smooth="yes"/>
      <point x="697" y="16"/>
      <point x="704" y="0"/>
      <point x="745" y="0" type="curve" smooth="yes"/>
      <point x="782" y="0" type="line" smooth="yes"/>
      <point x="820" y="0"/>
      <point x="830" y="13"/>
      <point x="830" y="48" type="curve" smooth="yes"/>
    </contour>
    <contour>
      <point x="525" y="386" type="line"/>
      <point x="581" y="386" type="line" smooth="yes"/>
      <point x="593" y="386"/>
      <point x="629" y="386"/>
      <point x="629" y="422" type="curve" smooth="yes"/>
      <point x="629" y="458"/>
      <point x="593" y="458"/>
      <point x="581" y="458" type="curve" smooth="yes"/>
      <point x="522" y="458" type="line"/>
      <point x="522" y="572" type="line" smooth="yes"/>
      <point x="522" y="609"/>
      <point x="528" y="633"/>
      <point x="555" y="633" type="curve" smooth="yes"/>
      <point x="586" y="633"/>
      <point x="598" y="613"/>
      <point x="603" y="605" type="curve" smooth="yes"/>
      <point x="606" y="600"/>
      <point x="610" y="595"/>
      <point x="616" y="595" type="curve" smooth="yes"/>
      <point x="629" y="595"/>
      <point x="629" y="605"/>
      <point x="629" y="621" type="curve" smooth="yes"/>
      <point x="629" y="667" type="line" smooth="yes"/>
      <point x="629" y="691"/>
      <point x="629" y="692"/>
      <point x="604" y="698" type="curve" smooth="yes"/>
      <point x="580" y="705"/>
      <point x="564" y="705"/>
      <point x="552" y="705" type="curve" smooth="yes"/>
      <point x="469" y="705"/>
      <point x="392" y="669"/>
      <point x="392" y="540" type="curve" smooth="yes"/>
      <point x="392" y="48" type="line" smooth="yes"/>
      <point x="392" y="12"/>
      <point x="403" y="0"/>
      <point x="440" y="0" type="curve" smooth="yes"/>
      <point x="477" y="0" type="line" smooth="yes"/>
      <point x="515" y="0"/>
      <point x="525" y="13"/>
      <point x="525" y="48" type="curve" smooth="yes"/>
    </contour>
  </outline>
</glyph>
<glyph name="sfthyphen" format="2">
  <advance width="183"/>
  <outline>
    <contour>
      <point x="257" y="193" type="line" smooth="yes"/>
      <point x="269" y="193"/>
      <point x="305" y="193"/>
      <point x="305" y="229" type="curve" smooth="yes"/>
      <point x="305" y="265"/>
      <point x="269" y="265"/>
      <point x="257" y="265" type="curve" smooth="yes"/>
      <point x="60" y="265" type="line" smooth="yes"/>
      <point x="48" y="265"/>
      <point x="12" y="265"/>
      <point x="12" y="229" type="curve" smooth="yes"/>
      <point x="12" y="193"/>
      <point x="48" y="193"/>
      <point x="60" y="193" type="curve" smooth="yes"/>
    </contour>
  </outline>
</glyph>
<glyph name="suppress" format="2">
  <advance width="255"/>
  <outline>
    <contour>
      <point x="278" y="343" type="line"/>
      <point x="287" y="344"/>
      <point x="317" y="350"/>
      <point x="317" y="380" type="curve" smooth="yes"/>
      <point x="317" y="399"/>
      <point x="303" y="416"/>
      <point x="281" y="416" type="curve" smooth="yes"/>
      <point x="275" y="416"/>
      <point x="273" y="416"/>
      <point x="258" y="413" type="curve" smooth="yes"/>
      <point x="-23" y="365" type="line"/>
      <point x="-32" y="364"/>
      <point x="-62" y="358"/>
      <point x="-62" y="328" type="curve" smooth="yes"/>
      <point x="-62" y="309"/>
      <point x="-48" y="292"/>
      <point x="-26" y="292" type="curve" smooth="yes"/>
      <point x="-20" y="292"/>
      <point x="-18" y="292"/>
      <point x="-3" y="295" type="curve" smooth="yes"/>
    </contour>
  </outline>
</glyph>
